<?xml version="1.0" encoding="UTF-8"?>
<svg width="30px" height="32px" viewBox="0 0 30 32" version="1.1" xmlns="http://www.w3.org/2000/svg" xmlns:xlink="http://www.w3.org/1999/xlink">
    <!-- Generator: Sketch 51.1 (57501) - http://www.bohemiancoding.com/sketch -->
    <title>ui/logo/small-purple</title>
    <desc>Created with Sketch.</desc>
    <defs></defs>
    <g id="MOBILE" stroke="none" stroke-width="1" fill="none" fill-rule="evenodd">
        <g id="ui/logo/small-purple" fill="#5243AA" fill-rule="nonzero">
            <path d="M7.34177497,23.6020541 L9.67291554,24.641925 L8.72315438,28.3387818 C8.19683286,30.4891249 6.28483644,32 4.08982568,32 L0,32 L7.8386974,0 L25.2250622,0 C28.3243837,0 30.6015787,2.9344843 29.8584862,5.97077909 L28.8994812,9.88888311 L21.0734788,9.88888311 L21.2558873,9.07353454 C21.3907608,8.47114915 20.9846131,7.85007804 20.3726714,7.85007804 L13.7515581,7.85007804 L11.7947949,15.7483159 L18.9369799,15.7483159 C19.3770132,15.7483159 19.6992587,15.4929716 19.8034921,15.0615545 L20.10302,13.8219167 L27.9367539,13.8219167 L26.4163965,20.0334955 C25.890075,22.1838386 24.0896623,23.606581 21.8946511,23.606581 L9.88518532,23.6020541 L7.34177497,23.6020541 Z" id="logo"></path>
        </g>
    </g>
</svg>