<?xml version="1.0" encoding="UTF-8"?>
<svg width="120px" height="34px" viewBox="0 0 120 34" version="1.1" xmlns="http://www.w3.org/2000/svg" xmlns:xlink="http://www.w3.org/1999/xlink">
    <!-- Generator: Sketch 51.1 (57501) - http://www.bohemiancoding.com/sketch -->
    <title>ui/logo/white</title>
    <desc>Created with Sketch.</desc>
    <defs></defs>
    <g id="MOBILE" stroke="none" stroke-width="1" fill="none" fill-rule="evenodd">
        <g id="ui/logo/white" transform="translate(0.000000, -3.000000)" fill="#FFFFFF" fill-rule="nonzero">
            <path d="M115.256433,11.4999999 C116.724062,11.4999999 118.084709,12.1591027 118.989573,13.3082766 C119.894437,14.4574504 120.211587,15.92935 119.859637,17.3463248 L117.62392,26.3488424 C117.099749,28.4596091 115.206858,29.9338377 113.020635,29.9338377 L106.276745,29.9338377 L105.428158,33.4150051 C104.903987,35.525852 103.011096,37 100.825034,37 L98.4210526,37 L104.735804,11.4999999 L115.256433,11.4999999 Z M111.30016,24.9504172 L113.313517,16.720707 C113.363819,16.5148982 113.317312,16.3012999 113.185623,16.1347576 C113.054016,15.9682153 112.856362,15.8726582 112.643367,15.8726582 L109.247805,15.8726582 L106.865382,25.5397391 L110.546363,25.5397391 C110.905337,25.5397391 111.215382,25.297474 111.30016,24.9504172 Z M55.8806982,11.4999999 L62.1052632,11.4999999 L56.7028703,33.2078071 C56.1471533,35.4406742 54.140664,37 51.8232424,37 L43.2655917,37 C42.2552048,37 41.3185129,36.5471602 40.6955937,35.7577106 C40.0726748,34.968261 39.8543487,33.9572245 40.0966174,32.9837232 L40.1779418,32.6567796 L40.5172808,32.6567796 L50.3516112,32.6567796 C50.5514322,32.6567796 50.7243889,32.5223452 50.7722745,32.3299162 L51.354369,29.990726 L46.9281938,29.990726 C45.4529914,29.990726 44.0851665,29.3295894 43.175583,28.1767883 C42.2660805,27.0240681 41.9471944,25.5477065 42.3010613,24.1262785 L45.4433333,11.4999999 L51.5920118,11.4999999 L48.2194017,25.088181 C48.1874239,25.2173797 48.2163987,25.3515726 48.299103,25.4562848 C48.381726,25.560997 48.5061473,25.6210049 48.640227,25.6210049 L52.4143459,25.6210049 L55.8806982,11.4999999 Z M6.18254738,22.9833797 L8.14561313,23.8638173 L7.34581426,26.9938709 C6.90259613,28.8145227 5.29249388,30.09375 3.44406375,30.09375 L0,30.09375 L6.60100838,3 L21.2421578,3 C23.8521128,3 25.7697506,5.48456825 25.1439885,8.05533737 L24.3364054,11.3727165 L17.7460875,11.3727165 L17.8996946,10.6823774 C18.0132724,10.1723499 17.6712533,9.64650162 17.1559339,9.64650162 L11.5802595,9.64650162 L9.93245888,16.3337792 L15.9469305,16.3337792 C16.3174849,16.3337792 16.5888495,16.1175843 16.676625,15.7523122 L16.928859,14.7027361 L23.5256876,14.7027361 L22.2453866,19.9619537 C21.8021685,21.7826055 20.2860315,22.9872126 18.437601,22.9872126 L8.32436663,22.9833797 L6.18254738,22.9833797 Z M76.1778687,29.5625003 L67.0915786,29.5603965 C66.6460718,29.5602935 66.2023013,29.5043561 65.7704513,29.3938685 C62.8891714,28.6567014 61.1454739,25.7014732 61.8757943,22.7931813 L65.8171902,7.09769738 C66.4223708,4.68773948 68.5711306,3 71.0342089,3 L80.8820708,3 C83.3841301,3 85.2224922,5.40127815 84.6225991,7.88586684 L83.8484018,11.0920373 L77.5305293,11.0920373 L77.6777862,10.4248403 C77.7866686,9.93191073 77.4587888,9.42369067 76.9647728,9.42369067 L72.1594767,9.42369067 C71.8412359,9.42369067 71.5628783,9.6399567 71.4814369,9.95048449 L68.2575252,22.2429615 C68.2420201,22.3020823 68.2341691,22.3629816 68.2341691,22.4241388 C68.2341691,22.8151405 68.5481948,23.1321099 68.9355649,23.1321099 L73.7901631,23.1321099 C74.1453983,23.1321099 74.4055448,22.9231628 74.4896914,22.5701357 L74.7314982,21.5557445 L81.0556126,21.5557445 L79.8282394,26.6386571 C79.4033442,28.3982752 77.9498843,29.5625003 76.1778687,29.5625003 Z M36.3370905,11.4999999 C37.7960629,11.4999999 39.1486842,12.1648206 40.0482109,13.3239634 C40.9476578,14.4831062 41.2629375,15.9676937 40.9131439,17.3970413 L37.8055339,30.09375 L27.3471986,30.09375 C25.8881464,30.09375 24.535605,29.4289297 23.6360783,28.2697059 C22.7365511,27.1106441 22.4212714,25.6260566 22.771065,24.1966279 L23.2579511,22.2075124 C23.7790298,20.0785161 25.6607561,18.5915795 27.8340045,18.5915795 L34.539642,18.5915795 L35.0645734,16.4467078 C35.0964383,16.3167082 35.0677035,16.1817677 34.985994,16.0763912 C34.9042043,15.9710144 34.7812388,15.9105908 34.6486414,15.9105908 L28.9657373,15.9105908 C27.9558461,15.9105908 27.0195581,15.450449 26.3969445,14.6480152 C25.7742506,13.8456628 25.556091,12.8181393 25.7982499,11.8287653 L25.878675,11.4999999 L36.3370905,11.4999999 Z M32.788185,25.661533 L33.465459,22.966289 L29.496207,22.965803 C29.3078258,22.967099 29.1210495,23.1244756 29.0710448,23.324213 L28.6213212,25.1232296 C28.5887337,25.2534719 28.6169869,25.3888984 28.6987767,25.4947609 C28.7804862,25.6007048 28.9036928,25.661533 29.0367717,25.661533 L32.788185,25.661533 Z M96.3370118,11.4999999 C97.7960645,11.4999999 99.1486857,12.1648206 100.048133,13.3239634 C100.947659,14.4831062 101.262939,15.9676937 100.913145,17.3970413 L97.8055355,30.09375 L87.34712,30.09375 C85.888148,30.09375 84.5355263,29.4289297 83.6359996,28.2697059 C82.7365527,27.1106441 82.4212729,25.6260566 82.7710666,24.1966279 L83.2579527,22.2075124 C83.7790313,20.0785161 85.6607581,18.5915795 87.8339258,18.5915795 L94.5396436,18.5915795 L95.064575,16.4467078 C95.0964402,16.3167082 95.0677051,16.1817677 94.9859956,16.0763912 C94.9041256,15.9710144 94.7812403,15.9105908 94.648643,15.9105908 L88.9657388,15.9105908 C87.9557675,15.9105908 87.0195597,15.450449 86.3968658,14.6480152 C85.7742522,13.8456628 85.5560123,12.8181393 85.7981712,11.8287653 L85.8786766,11.4999999 L96.3370118,11.4999999 Z M92.2618707,25.661533 L92.9391447,22.966289 L88.9698927,22.965803 C88.7814312,22.967099 88.5947352,23.1244756 88.5447305,23.324213 L88.094927,25.1232296 C88.0624197,25.2534719 88.0905923,25.3888984 88.1723825,25.4947609 C88.2541722,25.6007048 88.3773785,25.661533 88.5104573,25.661533 L92.2618707,25.661533 Z" id="logo"></path>
        </g>
    </g>
</svg>