<?xml version="1.0" encoding="UTF-8"?>
<svg width="14px" height="18px" viewBox="0 0 14 18" version="1.1" xmlns="http://www.w3.org/2000/svg" xmlns:xlink="http://www.w3.org/1999/xlink">
    <!-- Generator: Sketch 50 (54983) - http://www.bohemiancoding.com/sketch -->
    <title>icon/arrow-down@1x</title>
    <desc>Created with Sketch.</desc>
    <defs></defs>
    <g id="STYLEGUIDE" stroke="none" stroke-width="1" fill="none" fill-rule="evenodd">
        <g id="PayCap-Styleguide" transform="translate(-869.000000, -2107.000000)" fill="#BDBBCD" fill-rule="nonzero">
            <g id="icon/arrow-down" transform="translate(864.000000, 2104.000000)">
                <path d="M11.1525691,19.4686801 C11.3294659,19.7878446 11.6428704,20 12,20 C12.3571296,20 12.6705341,19.7878446 12.8474309,19.4686801 C13.0900714,19.8549073 13.0432967,20.3709168 12.7071068,20.7071068 C12.3165825,21.0976311 11.6834175,21.0976311 11.2928932,20.7071068 L5.29289322,14.7071068 C4.90236893,14.3165825 4.90236893,13.6834175 5.29289322,13.2928932 C5.68341751,12.9023689 6.31658249,12.9023689 6.70710678,13.2928932 L11,17.5857864 L11,4.13325206 C11,3.50737423 11.4477153,3 12,3 C12.5522847,3 13,3.50737423 13,4.13325206 L13,17.5857864 L17.2928932,13.2928932 C17.6834175,12.9023689 18.3165825,12.9023689 18.7071068,13.2928932 C19.0976311,13.6834175 19.0976311,14.3165825 18.7071068,14.7071068 L12.7071068,20.7071068 C12.3165825,21.0976311 11.6834175,21.0976311 11.2928932,20.7071068 C10.9567033,20.3709168 10.9099286,19.8549073 11.1525691,19.4686801 Z" id="Combined-Shape"></path>
            </g>
        </g>
    </g>
</svg>