<?xml version="1.0" encoding="UTF-8"?>
<svg width="18px" height="14px" viewBox="0 0 18 14" version="1.1" xmlns="http://www.w3.org/2000/svg" xmlns:xlink="http://www.w3.org/1999/xlink">
    <!-- Generator: Sketch 49.3 (51167) - http://www.bohemiancoding.com/sketch -->
    <title>icon/arrow-left</title>
    <desc>Created with Sketch.</desc>
    <defs></defs>
    <g id="Styleguide" stroke="none" stroke-width="1" fill="none" fill-rule="evenodd">
        <g id="icon/arrow-left" transform="translate(-3.000000, -5.000000)" fill="#C1C7D0" fill-rule="nonzero">
            <path d="M4.70710678,18.7071068 C4.31658249,19.0976311 3.68341751,19.0976311 3.29289322,18.7071068 C2.90236893,18.3165825 2.90236893,17.6834175 3.29289322,17.2928932 L9.29289322,11.2928932 C9.68341751,10.9023689 10.3165825,10.9023689 10.7071068,11.2928932 C11.0976311,11.6834175 11.0976311,12.3165825 10.7071068,12.7071068 L4.70710678,18.7071068 Z" id="Path-2" transform="translate(7.000000, 15.000000) scale(-1, 1) translate(-7.000000, -15.000000) "></path>
            <path d="M4.70710678,12.7071068 C4.31658249,13.0976311 3.68341751,13.0976311 3.29289322,12.7071068 C2.90236893,12.3165825 2.90236893,11.6834175 3.29289322,11.2928932 L9.29289322,5.29289322 C9.68341751,4.90236893 10.3165825,4.90236893 10.7071068,5.29289322 C11.0976311,5.68341751 11.0976311,6.31658249 10.7071068,6.70710678 L4.70710678,12.7071068 Z" id="Path-2"></path>
            <path d="M5.13325206,13 C4.50737423,13 4,12.5522847 4,12 C4,11.4477153 4.50737423,11 5.13325206,11 L19.8667479,11 C20.4926258,11 21,11.4477153 21,12 C21,12.5522847 20.4926258,13 19.8667479,13 L5.13325206,13 Z" id="Path-5"></path>
        </g>
    </g>
</svg>