<?xml version="1.0" encoding="UTF-8"?>
<svg width="14px" height="18px" viewBox="0 0 14 18" version="1.1" xmlns="http://www.w3.org/2000/svg" xmlns:xlink="http://www.w3.org/1999/xlink">
    <!-- Generator: Sketch 50 (54983) - http://www.bohemiancoding.com/sketch -->
    <title>icon/arrow-up@1x</title>
    <desc>Created with Sketch.</desc>
    <defs></defs>
    <g id="STYLEGUIDE" stroke="none" stroke-width="1" fill="none" fill-rule="evenodd">
        <g id="PayCap-Styleguide" transform="translate(-709.000000, -2107.000000)" fill="#BDBBCD" fill-rule="nonzero">
            <g id="icon/arrow-up" transform="translate(704.000000, 2104.000000)">
                <path d="M11,6.41421356 L6.70710678,10.7071068 C6.31658249,11.0976311 5.68341751,11.0976311 5.29289322,10.7071068 C4.90236893,10.3165825 4.90236893,9.68341751 5.29289322,9.29289322 L11.2928932,3.29289322 C11.6834175,2.90236893 12.3165825,2.90236893 12.7071068,3.29289322 L18.7071068,9.29289322 C19.0976311,9.68341751 19.0976311,10.3165825 18.7071068,10.7071068 C18.3165825,11.0976311 17.6834175,11.0976311 17.2928932,10.7071068 L13,6.41421356 L13,19.8667479 C13,20.4926258 12.5522847,21 12,21 C11.4477153,21 11,20.4926258 11,19.8667479 L11,6.41421356 Z" id="Combined-Shape"></path>
            </g>
        </g>
    </g>
</svg>