<?xml version="1.0" encoding="UTF-8"?>
<svg width="18px" height="18px" viewBox="0 0 18 18" version="1.1" xmlns="http://www.w3.org/2000/svg" xmlns:xlink="http://www.w3.org/1999/xlink">
    <!-- Generator: Sketch 49.3 (51167) - http://www.bohemiancoding.com/sketch -->
    <title>icon/bag</title>
    <desc>Created with Sketch.</desc>
    <defs></defs>
    <g id="Styleguide" stroke="none" stroke-width="1" fill="none" fill-rule="evenodd">
        <g id="icon/bag" transform="translate(-3.000000, -3.000000)" fill="#C1C7D0" fill-rule="nonzero">
            <path d="M8,7 L8,5 C8,3.8954305 8.8954305,3 10,3 L14,3 C15.1045695,3 16,3.8954305 16,5 L16,7 L19,7 C20.1045695,7 21,7.8954305 21,9 L21,19 C21,20.1045695 20.1045695,21 19,21 L5,21 C3.8954305,21 3,20.1045695 3,19 L3,9 C3,7.8954305 3.8954305,7 5,7 L8,7 Z M10,9 L5,9 L5,19 L19,19 L19,9 L14,9 L10,9 Z M10,5 L10,7 L14,7 L14,5 L10,5 Z" id="Combined-Shape"></path>
        </g>
    </g>
</svg>