<?xml version="1.0" encoding="UTF-8"?>
<svg width="18px" height="20px" viewBox="0 0 18 20" version="1.1" xmlns="http://www.w3.org/2000/svg" xmlns:xlink="http://www.w3.org/1999/xlink">
    <!-- Generator: Sketch 49.3 (51167) - http://www.bohemiancoding.com/sketch -->
    <title>icon/bug</title>
    <desc>Created with Sketch.</desc>
    <defs></defs>
    <g id="Styleguide" stroke="none" stroke-width="1" fill="none" fill-rule="evenodd">
        <g id="icon/bug" transform="translate(-3.000000, -2.000000)" fill="#C1C7D0" fill-rule="nonzero">
            <path d="M12,7 C9.790861,7 8,8.790861 8,11 L8,16 C8,18.209139 9.790861,20 12,20 C14.209139,20 16,18.209139 16,16 L16,11 C16,8.790861 14.209139,7 12,7 Z M6,16 L6,14 L4,14 C3.44771525,14 3,13.5522847 3,13 C3,12.4477153 3.44771525,12 4,12 L6,12 L6,11 C6,10.6592878 6.0283988,10.3252085 6.08295844,10 L4,10 C3.44771525,10 3,9.55228475 3,9 C3,8.44771525 3.44771525,8 4,8 L6.80269317,8 C7.25544319,7.21733022 7.87991139,6.54642317 8.62458153,6.03879509 L6.29289322,3.70710678 C5.90236893,3.31658249 5.90236893,2.68341751 6.29289322,2.29289322 C6.68341751,1.90236893 7.31658249,1.90236893 7.70710678,2.29289322 L10.5826067,5.16839311 C11.0370567,5.05832678 11.5117169,5 12,5 C12.4985163,5 12.9828327,5.06079716 13.445939,5.17538136 L16.3284271,2.29289322 C16.7189514,1.90236893 17.3521164,1.90236893 17.7426407,2.29289322 C18.133165,2.68341751 18.133165,3.31658249 17.7426407,3.70710678 L15.3965094,6.05323811 C16.1318823,6.55912037 16.7488377,7.22473057 17.1973068,8 L20,8 C20.5522847,8 21,8.44771525 21,9 C21,9.55228475 20.5522847,10 20,10 L17.9170416,10 C17.9716012,10.3252085 18,10.6592878 18,11 L18,12 L20,12 C20.5522847,12 21,12.4477153 21,13 C21,13.5522847 20.5522847,14 20,14 L18,14 L18,16 L20,16 C20.5522847,16 21,16.4477153 21,17 C21,17.5522847 20.5522847,18 20,18 L17.6585886,18 C16.8349158,20.3303847 14.6124377,22 12,22 C9.38756235,22 7.16508423,20.3303847 6.34141142,18 L4,18 C3.44771525,18 3,17.5522847 3,17 C3,16.4477153 3.44771525,16 4,16 L6,16 Z" id="Combined-Shape"></path>
        </g>
    </g>
</svg>