<?xml version="1.0" encoding="UTF-8"?>
<svg width="16px" height="16px" viewBox="0 0 16 16" version="1.1" xmlns="http://www.w3.org/2000/svg" xmlns:xlink="http://www.w3.org/1999/xlink">
    <!-- Generator: Sketch 49.3 (51167) - http://www.bohemiancoding.com/sketch -->
    <title>icon/close</title>
    <desc>Created with Sketch.</desc>
    <defs></defs>
    <g id="Styleguide" stroke="none" stroke-width="1" fill="none" fill-rule="evenodd">
        <g id="icon/close" transform="translate(-4.000000, -4.000000)" fill="#C1C7D0">
            <path d="M12,2.17157288 L12,2.17157288 C12.5522847,2.17157288 13,2.61928813 13,3.17157288 L13,20.8284271 C13,21.3807119 12.5522847,21.8284271 12,21.8284271 L12,21.8284271 C11.4477153,21.8284271 11,21.3807119 11,20.8284271 L11,3.17157288 C11,2.61928813 11.4477153,2.17157288 12,2.17157288 Z" id="Rectangle-3" transform="translate(12.000000, 12.000000) rotate(-315.000000) translate(-12.000000, -12.000000) "></path>
            <path d="M12,2.17157288 L12,2.17157288 C12.5522847,2.17157288 13,2.61928813 13,3.17157288 L13,20.8284271 C13,21.3807119 12.5522847,21.8284271 12,21.8284271 L12,21.8284271 C11.4477153,21.8284271 11,21.3807119 11,20.8284271 L11,3.17157288 C11,2.61928813 11.4477153,2.17157288 12,2.17157288 Z" id="Rectangle-3" transform="translate(12.000000, 12.000000) rotate(-585.000000) translate(-12.000000, -12.000000) "></path>
        </g>
    </g>
</svg>