<?xml version="1.0" encoding="UTF-8"?>
<svg width="18px" height="20px" viewBox="0 0 18 20" version="1.1" xmlns="http://www.w3.org/2000/svg" xmlns:xlink="http://www.w3.org/1999/xlink">
    <!-- Generator: Sketch 49.3 (51167) - http://www.bohemiancoding.com/sketch -->
    <title>icon/download</title>
    <desc>Created with Sketch.</desc>
    <defs></defs>
    <g id="Styleguide" stroke="none" stroke-width="1" fill="none" fill-rule="evenodd">
        <g id="icon/download" transform="translate(-3.000000, -2.000000)" fill="#C1C7D0" fill-rule="nonzero">
            <path d="M11.0252568,15.276079 C11.1270788,15.6907099 11.5248374,16 12,16 C12.4751626,16 12.8729212,15.6907099 12.9747432,15.276079 C13.0489204,15.6003868 12.9597082,15.9545053 12.7071068,16.2071068 C12.3165825,16.5976311 11.6834175,16.5976311 11.2928932,16.2071068 L7.29289322,12.2071068 C6.90236893,11.8165825 6.90236893,11.1834175 7.29289322,10.7928932 C7.68341751,10.4023689 8.31658249,10.4023689 8.70710678,10.7928932 L11,13.0857864 L11,2.9332664 C11,2.4178376 11.4477153,2 12,2 C12.5522847,2 13,2.4178376 13,2.9332664 L13,13.0857864 L15.2928932,10.7928932 C15.6834175,10.4023689 16.3165825,10.4023689 16.7071068,10.7928932 C17.0976311,11.1834175 17.0976311,11.8165825 16.7071068,12.2071068 L12.7071068,16.2071068 C12.3165825,16.5976311 11.6834175,16.5976311 11.2928932,16.2071068 C11.0402918,15.9545053 10.9510796,15.6003868 11.0252568,15.276079 Z M3,19 C3,18.4477153 3.44771525,18 4,18 C4.55228475,18 5,18.4477153 5,19 L5,20 L19,20 L19,19 C19,18.4477153 19.4477153,18 20,18 C20.5522847,18 21,18.4477153 21,19 L21,20 C21,21.1045695 20.1045695,22 19,22 L5,22 C3.8954305,22 3,21.1045695 3,20 L3,19 Z" id="Combined-Shape"></path>
        </g>
    </g>
</svg>