<?xml version="1.0" encoding="UTF-8"?>
<svg width="24px" height="24px" viewBox="0 0 24 24" version="1.1" xmlns="http://www.w3.org/2000/svg" xmlns:xlink="http://www.w3.org/1999/xlink">
    <!-- Generator: Sketch 49.3 (51167) - http://www.bohemiancoding.com/sketch -->
    <title>icon/drag and drop upload</title>
    <desc>Created with Sketch.</desc>
    <defs></defs>
    <g id="Styleguide" stroke="none" stroke-width="1" fill="none" fill-rule="evenodd">
        <g id="icon/drag-and-drop-upload" fill="#C1C7D0" fill-rule="nonzero">
            <path d="M22,22 L22,21 C22,20.4477153 22.4477153,20 23,20 C23.5522847,20 24,20.4477153 24,21 L24,23 C24,23.5522847 23.5522847,24 23,24 L21,24 C20.4477153,24 20,23.5522847 20,23 C20,22.4477153 20.4477153,22 21,22 L22,22 Z M2,22 L3,22 C3.55228475,22 4,22.4477153 4,23 C4,23.5522847 3.55228475,24 3,24 L1,24 C0.44771525,24 6.76353751e-17,23.5522847 0,23 L0,21 C-6.76353751e-17,20.4477153 0.44771525,20 1,20 C1.55228475,20 2,20.4477153 2,21 L2,22 Z M22,2 L21,2 C20.4477153,2 20,1.55228475 20,1 C20,0.44771525 20.4477153,-1.15184184e-15 21,-1.11802415e-15 L23,-7.50630112e-16 C23.5522847,-7.16812425e-16 24,0.44771525 24,1 L24,3 C24,3.55228475 23.5522847,4 23,4 C22.4477153,4 22,3.55228475 22,3 L22,2 Z M2,2 L2,3 C2,3.55228475 1.55228475,4 1,4 C0.44771525,4 6.76353751e-17,3.55228475 0,3 L0,1 C-6.76353751e-17,0.44771525 0.44771525,-7.98546937e-16 1,-9e-16 L3,-7.50630112e-16 C3.55228475,-7.16812425e-16 4,0.44771525 4,1 C4,1.55228475 3.55228475,2 3,2 L2,2 Z M11.1620615,5.42372498 C11.340541,5.16860403 11.6491728,5 12,5 C12.3508272,5 12.659459,5.16860403 12.8379385,5.42372498 L16.7071068,9.29289322 C17.0976311,9.68341751 17.0976311,10.3165825 16.7071068,10.7071068 C16.3165825,11.0976311 15.6834175,11.0976311 15.2928932,10.7071068 L13,8.41421356 L13,18.0667336 C13,18.5821624 12.5522847,19 12,19 C11.4477153,19 11,18.5821624 11,18.0667336 L11,8.41421356 L8.70710678,10.7071068 C8.31658249,11.0976311 7.68341751,11.0976311 7.29289322,10.7071068 C6.90236893,10.3165825 6.90236893,9.68341751 7.29289322,9.29289322 L11.1620615,5.42372498 Z M1,6 C1.55228475,6 2,6.44771525 2,7 L2,10 C2,10.5522847 1.55228475,11 1,11 C0.44771525,11 6.76353751e-17,10.5522847 0,10 L0,7 C-6.76353751e-17,6.44771525 0.44771525,6 1,6 Z M23,6 C23.5522847,6 24,6.44771525 24,7 L24,10 C24,10.5522847 23.5522847,11 23,11 C22.4477153,11 22,10.5522847 22,10 L22,7 C22,6.44771525 22.4477153,6 23,6 Z M1,13 C1.55228475,13 2,13.4477153 2,14 L2,17 C2,17.5522847 1.55228475,18 1,18 C0.44771525,18 6.76353751e-17,17.5522847 0,17 L0,14 C-6.76353751e-17,13.4477153 0.44771525,13 1,13 Z M18,1 C18,1.55228475 17.5522847,2 17,2 L14,2 C13.4477153,2 13,1.55228475 13,1 C13,0.44771525 13.4477153,-1.22451656e-15 14,-1.19069887e-15 L17,-6.3960781e-16 C17.5522847,-6.05790122e-16 18,0.44771525 18,1 Z M11,1 C11,1.55228475 10.5522847,2 10,2 L7,2 C6.44771525,2 6,1.55228475 6,1 C6,0.44771525 6.44771525,-1.22451656e-15 7,-1.19069887e-15 L10,-6.3960781e-16 C10.5522847,-6.05790122e-16 11,0.44771525 11,1 Z M18,23 C18,23.5522847 17.5522847,24 17,24 L14,24 C13.4477153,24 13,23.5522847 13,23 C13,22.4477153 13.4477153,22 14,22 L17,22 C17.5522847,22 18,22.4477153 18,23 Z M11,23 C11,23.5522847 10.5522847,24 10,24 L7,24 C6.44771525,24 6,23.5522847 6,23 C6,22.4477153 6.44771525,22 7,22 L10,22 C10.5522847,22 11,22.4477153 11,23 Z M23,13 C23.5522847,13 24,13.4477153 24,14 L24,17 C24,17.5522847 23.5522847,18 23,18 C22.4477153,18 22,17.5522847 22,17 L22,14 C22,13.4477153 22.4477153,13 23,13 Z" id="Combined-Shape"></path>
        </g>
    </g>
</svg>