<?xml version="1.0" encoding="UTF-8"?>
<svg width="20px" height="20px" viewBox="0 0 20 20" version="1.1" xmlns="http://www.w3.org/2000/svg" xmlns:xlink="http://www.w3.org/1999/xlink">
    <!-- Generator: Sketch 49.3 (51167) - http://www.bohemiancoding.com/sketch -->
    <title>icon/edit</title>
    <desc>Created with Sketch.</desc>
    <defs></defs>
    <g id="Styleguide" stroke="none" stroke-width="1" fill="none" fill-rule="evenodd">
        <g id="icon/edit" transform="translate(-2.000000, -2.000000)" fill="#C1C7D0" fill-rule="nonzero">
            <path d="M7.5012573,19.9373195 C8.03976147,19.9379371 8.55596457,19.7246095 8.93630782,19.3442662 L19.9380029,8.34257113 L15.6258655,4.03043378 L4.62417047,15.0321289 C4.24382722,15.4124721 4.03049956,15.9286752 4.03111715,16.4671794 L4.03509232,19.9333444 L7.5012573,19.9373195 Z M17.0592695,2.59634781 L21.3714068,6.90848516 C22.1652494,7.70232772 22.1667238,8.98792644 21.3747,9.77995025 L10.3730049,20.7816453 C9.61231841,21.5423318 8.5799122,21.9689871 7.50290387,21.967752 L2.00630645,21.9614482 L2.00000267,16.4648508 C1.99876751,15.3878424 2.42542282,14.3554362 3.18610932,13.5947497 L14.1878044,2.59305467 C14.9798282,1.80103085 16.2654269,1.80250524 17.0592695,2.59634781 Z M13.483934,4.7458302 L19.2334504,10.4953467 L17.7993645,11.9294326 L12.049848,6.17991618 L13.483934,4.7458302 Z M6.29703839,11.9162601 L12.0465549,17.6657766 L10.6124689,19.0998625 L4.86295241,13.3503461 L6.29703839,11.9162601 Z" id="Combined-Shape"></path>
        </g>
    </g>
</svg>