<?xml version="1.0" encoding="UTF-8"?>
<svg width="18px" height="18px" viewBox="0 0 18 18" version="1.1" xmlns="http://www.w3.org/2000/svg" xmlns:xlink="http://www.w3.org/1999/xlink">
    <!-- Generator: Sketch 50 (54983) - http://www.bohemiancoding.com/sketch -->
    <title>icon/exchange@1x</title>
    <desc>Created with Sketch.</desc>
    <defs></defs>
    <g id="STYLEGUIDE" stroke="none" stroke-width="1" fill="none" fill-rule="evenodd">
        <g id="PayCap-Styleguide" transform="translate(-1187.000000, -2163.000000)" fill="#BDBBCD" fill-rule="nonzero">
            <g id="icon/exchange" transform="translate(1184.000000, 2160.000000)">
                <path d="M6.98702647,16.9630289 C8.25271106,18.2219725 9.99722501,19 11.923457,19 C15.7894503,19 18.923457,15.8659932 18.923457,12 L20.923457,12 C20.923457,16.9705627 16.8940198,21 11.923457,21 C9.4736749,21 7.25250074,20.021213 5.62966636,18.4333708 L4.71724293,19.4217411 C4.3323981,19.8224831 3.69929913,19.831732 3.3031768,19.442399 C3.10936077,19.2519049 3,18.9901665 3,18.7167914 L3,15.0068849 C3,14.4546002 3.44771525,14.0068849 4,14.0068849 L7.41407069,14.0068849 C7.96635544,14.0068849 8.41407069,14.4598215 8.41407069,15.0185471 C8.41407069,15.2818165 8.31262453,15.534716 8.13127743,15.7235345 L6.98702647,16.9630289 Z M12,5 C8.13400675,5 5,8.13400675 5,12 L3,12 C3,7.02943725 7.02943725,3 12,3 C14.4696992,3 16.7070581,3.99476707 18.3332535,5.60547796 L19.2815405,4.57825889 C19.6663853,4.17751689 20.2994843,4.16826805 20.6956066,4.55760102 C20.8894227,4.74809513 20.9987834,5.0098335 20.9987834,5.28320859 L20.9987834,8.99311508 C20.9987834,9.54539983 20.5510682,9.99311508 19.9987834,9.99311508 L16.5847127,9.99311508 C16.032428,9.99311508 15.5847127,9.54017847 15.5847127,8.98145286 C15.5847127,8.7181835 15.6861589,8.46528403 15.867506,8.27646547 L16.9755511,7.07619059 C15.7068151,5.79420568 13.9461559,5 12,5 Z" id="Combined-Shape"></path>
            </g>
        </g>
    </g>
</svg>