<?xml version="1.0" encoding="UTF-8"?>
<svg width="24px" height="18px" viewBox="0 0 24 18" version="1.1" xmlns="http://www.w3.org/2000/svg" xmlns:xlink="http://www.w3.org/1999/xlink">
    <!-- Generator: Sketch 49.3 (51167) - http://www.bohemiancoding.com/sketch -->
    <title>icon/eye-open</title>
    <desc>Created with Sketch.</desc>
    <defs></defs>
    <g id="Styleguide" stroke="none" stroke-width="1" fill="none" fill-rule="evenodd">
        <g id="icon/eye-open" transform="translate(0.000000, -3.000000)" fill="#C1C7D0" fill-rule="nonzero">
            <path d="M12,3.5 C17.3278863,3.5 22.0526662,6.77337692 23.9327981,11.6396007 C24.0224006,11.871513 24.0224006,12.128487 23.9327981,12.3603993 C22.0526662,17.2266231 17.3278863,20.5 12,20.5 C6.67211368,20.5 1.94733379,17.2266231 0.0672018656,12.3603993 C-0.0224006219,12.128487 -0.0224006219,11.871513 0.0672018656,11.6396007 C1.94733379,6.77337692 6.67211368,3.5 12,3.5 Z M12,5.5 C7.63553205,5.5 3.75285639,8.10046279 2.07967983,12 C3.75285639,15.8995372 7.63553205,18.5 12,18.5 C16.364468,18.5 20.2471436,15.8995372 21.9203202,12 C20.2471436,8.10046279 16.364468,5.5 12,5.5 Z M12,8 C9.73333333,8 8,9.73333333 8,12 C8,14.2666667 9.73333333,16 12,16 C14.2666667,16 16,14.2666667 16,12 C16,9.73333333 14.2666667,8 12,8 L12,8 Z" id="Combined-Shape"></path>
        </g>
    </g>
</svg>