<?xml version="1.0" encoding="UTF-8"?>
<svg width="24px" height="18px" viewBox="0 0 24 18" version="1.1" xmlns="http://www.w3.org/2000/svg" xmlns:xlink="http://www.w3.org/1999/xlink">
    <!-- Generator: Sketch 49.3 (51167) - http://www.bohemiancoding.com/sketch -->
    <title>icon/eye-closed</title>
    <desc>Created with Sketch.</desc>
    <defs></defs>
    <g id="Styleguide" stroke="none" stroke-width="1" fill="none" fill-rule="evenodd">
        <g id="icon/eye-closed" transform="translate(0.000000, -3.000000)" fill="#C1C7D0" fill-rule="nonzero">
            <path d="M12,3.5 C17.3278863,3.5 22.0526662,6.77337692 23.9327981,11.6396007 C24.0224006,11.871513 24.0224006,12.128487 23.9327981,12.3603993 C22.0526662,17.2266231 17.3278863,20.5 12,20.5 C6.67211368,20.5 1.94733379,17.2266231 0.0672018656,12.3603993 C-0.0224006219,12.128487 -0.0224006219,11.871513 0.0672018656,11.6396007 C1.94733379,6.77337692 6.67211368,3.5 12,3.5 Z M12,5.5 C7.63553205,5.5 3.75285639,8.10046279 2.07967983,12 C3.75285639,15.8995372 7.63553205,18.5 12,18.5 C16.364468,18.5 20.2471436,15.8995372 21.9203202,12 C20.2471436,8.10046279 16.364468,5.5 12,5.5 Z M0.48785639,12.8589618 C0.0135496891,12.5760279 -0.141588608,11.9621631 0.141345304,11.4878564 C0.424279216,11.0135497 1.03814402,10.8584114 1.51245072,11.1413453 C4.67754644,13.0293914 8.16879883,13.9815511 12.0050057,14.0001653 C15.8348175,14.0187485 19.3197332,13.0683169 22.4804837,11.1457864 C22.9523376,10.8587807 23.5675149,11.0086297 23.8545207,11.4804837 C24.1415264,11.9523376 23.9916774,12.5675149 23.5198235,12.8545207 C20.0403149,14.9709362 16.1918973,16.0205047 11.9953014,16.0001418 C7.80510055,15.9798099 3.9630196,14.9319697 0.48785639,12.8589618 Z" id="Shape"></path>
        </g>
    </g>
</svg>