<?xml version="1.0" encoding="UTF-8"?>
<svg width="20px" height="18px" viewBox="0 0 20 18" version="1.1" xmlns="http://www.w3.org/2000/svg" xmlns:xlink="http://www.w3.org/1999/xlink">
    <!-- Generator: Sketch 49.3 (51167) - http://www.bohemiancoding.com/sketch -->
    <title>icon/feedback</title>
    <desc>Created with Sketch.</desc>
    <defs></defs>
    <g id="Styleguide" stroke="none" stroke-width="1" fill="none" fill-rule="evenodd">
        <g id="icon/feedback" transform="translate(-2.000000, -4.000000)" fill="#C1C7D0" fill-rule="nonzero">
            <path d="M5,19 C3.34314575,19 2,17.6568542 2,16 L2,7 C2,5.34314575 3.34314575,4 5,4 L19,4 C20.6568542,4 22,5.34314575 22,7 L22,16 C22,17.6568542 20.6568542,19 19,19 L15.4155605,19 L12.7069309,21.7072826 C12.3165676,22.0974518 11.6839121,22.0975901 11.2933783,21.7075915 L8.58207058,19 L5,19 Z M14.2945617,17.2927174 C14.4820838,17.1052886 14.7363623,17 15.0014926,17 L19,17 C19.5522847,17 20,16.5522847 20,16 L20,7 C20,6.44771525 19.5522847,6 19,6 L5,6 C4.44771525,6 4,6.44771525 4,7 L4,16 C4,16.5522847 4.44771525,17 5,17 L8.99588247,17 C9.26086133,17 9.51500737,17.1051687 9.70250417,17.2924085 L11.9996911,19.5864468 L14.2945617,17.2927174 Z M7,12 L15,12 C15.5522847,12 16,12.4477153 16,13 C16,13.5522847 15.5522847,14 15,14 L7,14 C6.44771525,14 6,13.5522847 6,13 C6,12.4477153 6.44771525,12 7,12 Z M7,8 L17,8 C17.5522847,8 18,8.44771525 18,9 C18,9.55228475 17.5522847,10 17,10 L7,10 C6.44771525,10 6,9.55228475 6,9 C6,8.44771525 6.44771525,8 7,8 Z" id="Combined-Shape"></path>
        </g>
    </g>
</svg>