<?xml version="1.0" encoding="UTF-8"?>
<svg width="16px" height="17px" viewBox="0 0 16 17" version="1.1" xmlns="http://www.w3.org/2000/svg" xmlns:xlink="http://www.w3.org/1999/xlink">
    <!-- Generator: Sketch 49.3 (51167) - http://www.bohemiancoding.com/sketch -->
    <title>icon/flag</title>
    <desc>Created with Sketch.</desc>
    <defs></defs>
    <g id="Styleguide" stroke="none" stroke-width="1" fill="none" fill-rule="evenodd">
        <g id="icon/flag" transform="translate(-5.000000, -4.000000)" fill="#C1C7D0" fill-rule="nonzero">
            <path d="M7,6.03826855 L7,11.9684271 L13.0996021,11.9684271 C13.4789233,11.9684271 13.8255896,12.183044 13.9947099,12.5225773 L14.7613369,14.0616913 L18.037375,14.0616913 L18.037375,8.02661136 L14.0526249,8.02661136 C13.6678324,8.02661136 13.3171731,7.80582632 13.1508575,7.45883302 L12.4699738,6.03826855 L7,6.03826855 Z M6.27493182,4.03826855 L13.0996021,4.03826855 C13.4843946,4.03826855 13.8350539,4.25905358 14.0013695,4.60604688 L14.6822533,6.02661136 L19.037375,6.02661136 C19.5896597,6.02661136 20.037375,6.47432661 20.037375,7.02661136 L20.037375,15.0616913 C20.037375,15.613976 19.5896597,16.0616913 19.037375,16.0616913 L14.1422492,16.0616913 C13.7629281,16.0616913 13.4162617,15.8470745 13.2471415,15.5075411 L12.4805145,13.9684271 L7,13.9684271 L7,20 C7,20.5522847 6.55228475,21 6,21 C5.44771525,21 5,20.5522847 5,20 L5,5 C5,4.44771525 5.44771525,4 6,4 C6.09534938,4 6.18758192,4.01334478 6.27493182,4.03826855 Z" id="Combined-Shape"></path>
        </g>
    </g>
</svg>