<?xml version="1.0" encoding="UTF-8"?>
<svg width="16px" height="18px" viewBox="0 0 16 18" version="1.1" xmlns="http://www.w3.org/2000/svg" xmlns:xlink="http://www.w3.org/1999/xlink">
    <!-- Generator: Sketch 50 (54983) - http://www.bohemiancoding.com/sketch -->
    <title>icon/payments/inactive@1x</title>
    <desc>Created with Sketch.</desc>
    <defs></defs>
    <g id="STYLEGUIDE" stroke="none" stroke-width="1" fill="none" fill-rule="evenodd">
        <g id="PayCap-Styleguide" transform="translate(-1188.000000, -2787.000000)" fill="#BDBBCD" fill-rule="nonzero">
            <g id="icon/payments/inactive" transform="translate(1184.000000, 2784.000000)">
                <path d="M9,6.41421356 L9,14 C9,14.5522847 8.55228475,15 8,15 C7.44771525,15 7,14.5522847 7,14 L7,6.41421356 L5.70710678,7.70710678 C5.31658249,8.09763107 4.68341751,8.09763107 4.29289322,7.70710678 C3.90236893,7.31658249 3.90236893,6.68341751 4.29289322,6.29289322 L7.29289322,3.29289322 C7.68341751,2.90236893 8.31658249,2.90236893 8.70710678,3.29289322 L11.7071068,6.29289322 C12.0976311,6.68341751 12.0976311,7.31658249 11.7071068,7.70710678 C11.3165825,8.09763107 10.6834175,8.09763107 10.2928932,7.70710678 L9,6.41421356 Z M17,17.5857864 L18.2928932,16.2928932 C18.6834175,15.9023689 19.3165825,15.9023689 19.7071068,16.2928932 C20.0976311,16.6834175 20.0976311,17.3165825 19.7071068,17.7071068 L16.7071068,20.7071068 C16.3165825,21.0976311 15.6834175,21.0976311 15.2928932,20.7071068 L12.2928932,17.7071068 C11.9023689,17.3165825 11.9023689,16.6834175 12.2928932,16.2928932 C12.6834175,15.9023689 13.3165825,15.9023689 13.7071068,16.2928932 L15,17.5857864 L15,10 C15,9.44771525 15.4477153,9 16,9 C16.5522847,9 17,9.44771525 17,10 L17,17.5857864 Z M8,18 C7.44771525,18 7,17.5522847 7,17 C7,16.4477153 7.44771525,16 8,16 C8.55228475,16 9,16.4477153 9,17 C9,17.5522847 8.55228475,18 8,18 Z M8,21 C7.44771525,21 7,20.5522847 7,20 C7,19.4477153 7.44771525,19 8,19 C8.55228475,19 9,19.4477153 9,20 C9,20.5522847 8.55228475,21 8,21 Z M16,6 C16.5522847,6 17,6.44771525 17,7 C17,7.55228475 16.5522847,8 16,8 C15.4477153,8 15,7.55228475 15,7 C15,6.44771525 15.4477153,6 16,6 Z M16,3 C16.5522847,3 17,3.44771525 17,4 C17,4.55228475 16.5522847,5 16,5 C15.4477153,5 15,4.55228475 15,4 C15,3.44771525 15.4477153,3 16,3 Z" id="Combined-Shape"></path>
            </g>
        </g>
    </g>
</svg>