<?xml version="1.0" encoding="UTF-8"?>
<svg width="18px" height="18px" viewBox="0 0 18 18" version="1.1" xmlns="http://www.w3.org/2000/svg" xmlns:xlink="http://www.w3.org/1999/xlink">
    <!-- Generator: Sketch 50 (54983) - http://www.bohemiancoding.com/sketch -->
    <title>icon/mosaic-inactive@1x</title>
    <desc>Created with Sketch.</desc>
    <defs></defs>
    <g id="STYLEGUIDE" stroke="none" stroke-width="1" fill="none" fill-rule="evenodd">
        <g id="PayCap-Styleguide" transform="translate(-387.000000, -2891.000000)" fill="#BDBBCD" fill-rule="nonzero">
            <g id="icon/mosaic-inactive" transform="translate(384.000000, 2888.000000)">
                <path d="M5,3 L9,3 C10.1045695,3 11,3.8954305 11,5 L11,9 C11,10.1045695 10.1045695,11 9,11 L5,11 C3.8954305,11 3,10.1045695 3,9 L3,5 C3,3.8954305 3.8954305,3 5,3 Z M5,13 L9,13 C10.1045695,13 11,13.8954305 11,15 L11,19 C11,20.1045695 10.1045695,21 9,21 L5,21 C3.8954305,21 3,20.1045695 3,19 L3,15 C3,13.8954305 3.8954305,13 5,13 Z M15,3 L19,3 C20.1045695,3 21,3.8954305 21,5 L21,9 C21,10.1045695 20.1045695,11 19,11 L15,11 C13.8954305,11 13,10.1045695 13,9 L13,5 C13,3.8954305 13.8954305,3 15,3 Z M15,13 L19,13 C20.1045695,13 21,13.8954305 21,15 L21,19 C21,20.1045695 20.1045695,21 19,21 L15,21 C13.8954305,21 13,20.1045695 13,19 L13,15 C13,13.8954305 13.8954305,13 15,13 Z M15,15 L15,19 L19,19 L19,15 L15,15 Z M5,5 L5,9 L9,9 L9,5 L5,5 Z M5,15 L5,19 L9,19 L9,15 L5,15 Z M15,5 L15,9 L19,9 L19,5 L15,5 Z" id="Combined-Shape"></path>
            </g>
        </g>
    </g>
</svg>