<?xml version="1.0" encoding="UTF-8"?>
<svg width="16px" height="20px" viewBox="0 0 16 20" version="1.1" xmlns="http://www.w3.org/2000/svg" xmlns:xlink="http://www.w3.org/1999/xlink">
    <!-- Generator: Sketch 49.3 (51167) - http://www.bohemiancoding.com/sketch -->
    <title>icon/notification</title>
    <desc>Created with Sketch.</desc>
    <defs></defs>
    <g id="Styleguide" stroke="none" stroke-width="1" fill="none" fill-rule="evenodd">
        <g id="icon/notification" transform="translate(-4.000000, -2.000000)" fill="#C1C7D0">
            <path d="M13,6.12601749 L13,5 C13,4.44771525 12.5522847,4 12,4 C11.4477153,4 11,4.44771525 11,5 L11,6.12601749 C9.27477279,6.57006028 8,8.13616057 8,10 L8,13.3431458 C8,14.6692282 7.4732158,15.9409978 6.53553391,16.8786797 L6.41421356,17 L17.5857864,17 L17.4644661,16.8786797 C16.5267842,15.9409978 16,14.6692282 16,13.3431458 L16,10 C16,8.13616057 14.7252272,6.57006028 13,6.12601749 Z M14.9933638,4.79886002 C16.790427,5.83534044 18,7.77641476 18,10 L18,13.3431458 C18,14.1387952 18.3160705,14.901857 18.8786797,15.4644661 L19.2071068,15.7928932 C19.9407768,16.5265633 19.9407768,17.7160774 19.2071068,18.4497475 C18.854786,18.8020682 18.3769365,19 17.8786797,19 L6.12132034,19 C5.08375422,19 4.24264069,18.1588865 4.24264069,17.1213203 C4.24264069,16.6230635 4.44057244,16.145214 4.79289322,15.7928932 L5.12132034,15.4644661 C5.68392948,14.901857 6,14.1387952 6,13.3431458 L6,10 C6,7.77641476 7.20957305,5.83534044 9.00663616,4.79886002 C9.11011046,3.23579273 10.4107378,2 12,2 C13.5892622,2 14.8898895,3.23579273 14.9933638,4.79886002 Z M13.9787809,20 C13.9787809,21.1 13.0883295,22 12,22 C10.9116705,22 10.0212191,21.1 10.0212191,20 L13.9787809,20 Z" id="Combined-Shape"></path>
        </g>
    </g>
</svg>