<?xml version="1.0" encoding="UTF-8"?>
<svg width="20px" height="20px" viewBox="0 0 20 20" version="1.1" xmlns="http://www.w3.org/2000/svg" xmlns:xlink="http://www.w3.org/1999/xlink">
    <!-- Generator: Sketch 50 (54983) - http://www.bohemiancoding.com/sketch -->
    <title>icon/recipients@1x</title>
    <desc>Created with Sketch.</desc>
    <defs></defs>
    <g id="STYLEGUIDE" stroke="none" stroke-width="1" fill="none" fill-rule="evenodd">
        <g id="PayCap-Styleguide" transform="translate(-546.000000, -2786.000000)" fill="#BDBBCD" fill-rule="nonzero">
            <g id="icon/recipients" transform="translate(544.000000, 2784.000000)">
                <path d="M8.26746532,20.0000454 C8.42598379,20.000017 8.42598379,20.000017 8.58821384,20.0000076 C8.69476198,20.0000102 8.69476198,20.0000102 8.79995956,20.000018 C12.2246492,20.0002739 13.2663845,19.9531279 13.921744,19.7495826 C14.0925845,19.696522 14.0020032,19.8445823 13.9999674,19.2799436 C13.9888165,16.1871445 11.8355578,14 8.99997721,14 C6.15943628,14 4,16.1900856 4,19.2727328 C4,19.5310112 4.00827865,19.7251099 4.01959181,19.8606864 C4.53237153,19.9673772 5.60138543,20.0005254 8.26746532,20.0000454 Z M6.80142663,12.3421317 C5.71618272,11.6267756 5,10.3970245 5,9 C5,6.790861 6.790861,5 9,5 C11.209139,5 13,6.790861 13,9 C13,10.3972379 12.2835984,11.6271513 11.1980759,12.3424595 C13.9830569,13.2444401 15.9876259,15.8533129 15.9999544,19.2727328 C16.0099126,22.0347313 14.3907177,22.0000076 8.58821384,22.0000076 C2.78571001,22.0000076 2,22.0540575 2,19.2727328 C2,15.852888 4.01248229,13.2438057 6.80142663,12.3421317 Z M18.2669602,16.9430875 C19.1395437,16.8857071 19.6911383,16.8212054 19.921744,16.7495826 C20.0925845,16.696522 20.0020032,16.8445823 19.9999674,16.2799436 C19.9888165,13.1871445 17.8355578,11 14.9999772,11 C14.8834726,11 14.7681138,11.0036842 14.6540028,11.0109631 C14.8795,10.3766909 15,9.69842354 15,9 C15,8.65869374 14.9715021,8.32404352 14.9167559,7.99829903 C14.9443633,7.99942933 14.972115,8 15,8 C16.1045695,8 17,7.1045695 17,6 C17,4.8954305 16.1045695,4 15,4 C14.6144442,4 14.1622079,4.20660908 13.6432912,4.61982723 C13.4651242,4.76169808 13.2135944,4.76524193 13.0315037,4.62844361 L12.1558066,3.97051539 C11.9350437,3.80466407 11.8905291,3.49125133 12.0563804,3.27048846 C12.0643081,3.25993592 12.0726506,3.24970145 12.0813883,3.23980911 C12.8114502,2.4132697 13.7843208,2 15,2 C17.209139,2 19,3.790861 19,6 C19,7.39723794 18.2835984,8.62715133 17.1980759,9.3424595 C19.9830569,10.2444401 21.9876259,12.8533129 21.9999544,16.2727328 C22.0061631,17.994774 20.8224089,18.8924368 18.4486919,18.9657213 L18.4486911,18.9656979 C18.1917844,18.9736295 17.9707185,18.7854802 17.9374833,18.5306089 L17.803886,17.5067605 C17.7681732,17.2328887 17.9612392,16.9819209 18.2351109,16.9462081 C18.2456914,16.9448284 18.2563132,16.9437877 18.2669602,16.9430875 Z M9,11 C10.1045695,11 11,10.1045695 11,9 C11,7.8954305 10.1045695,7 9,7 C7.8954305,7 7,7.8954305 7,9 C7,10.1045695 7.8954305,11 9,11 Z" id="Combined-Shape"></path>
            </g>
        </g>
    </g>
</svg>