<?xml version="1.0" encoding="UTF-8"?>
<svg width="8px" height="16px" viewBox="0 0 8 16" version="1.1" xmlns="http://www.w3.org/2000/svg" xmlns:xlink="http://www.w3.org/1999/xlink">
    <!-- Generator: Sketch 49.3 (51167) - http://www.bohemiancoding.com/sketch -->
    <title>icon/send</title>
    <desc>Created with Sketch.</desc>
    <defs></defs>
    <g id="Styleguide" stroke="none" stroke-width="1" fill="none" fill-rule="evenodd">
        <g id="icon/send" transform="translate(-8.000000, -4.000000)" fill="#C1C7D0" fill-rule="nonzero">
            <path d="M11,7.41421356 L9.70710678,8.70710678 C9.31658249,9.09763107 8.68341751,9.09763107 8.29289322,8.70710678 C7.90236893,8.31658249 7.90236893,7.68341751 8.29289322,7.29289322 L11.2928932,4.29289322 C11.6834175,3.90236893 12.3165825,3.90236893 12.7071068,4.29289322 L15.7071068,7.29289322 C16.0976311,7.68341751 16.0976311,8.31658249 15.7071068,8.70710678 C15.3165825,9.09763107 14.6834175,9.09763107 14.2928932,8.70710678 L13,7.41421356 L13,19 C13,19.5522847 12.5522847,20 12,20 C11.4477153,20 11,19.5522847 11,19 L11,7.41421356 Z" id="Combined-Shape"></path>
        </g>
    </g>
</svg>