<?xml version="1.0" encoding="UTF-8"?>
<svg width="20px" height="20px" viewBox="0 0 20 20" version="1.1" xmlns="http://www.w3.org/2000/svg" xmlns:xlink="http://www.w3.org/1999/xlink">
    <!-- Generator: Sketch 49.3 (51167) - http://www.bohemiancoding.com/sketch -->
    <title>icon/settings active</title>
    <desc>Created with Sketch.</desc>
    <defs></defs>
    <g id="Styleguide" stroke="none" stroke-width="1" fill="none" fill-rule="evenodd">
        <g id="icon/settings-active" transform="translate(-2.000000, -2.000000)" fill="#007FFF">
            <path d="M7.92245406,5.11569926 C8.56720181,4.73299372 9.27031459,4.43828625 10.0152409,4.24812832 C10.005181,4.16683033 10,4.08402021 10,4 C10,2.8954305 10.8954305,2 12,2 C13.1045695,2 14,2.8954305 14,4 C14,4.08402021 13.994819,4.16683033 13.9847591,4.24812832 C14.7296854,4.43828625 15.4327982,4.73299372 16.0775459,5.11569926 C16.1280333,5.05090729 16.1830649,4.98850802 16.2426407,4.92893219 C17.0236893,4.1478836 18.2900192,4.1478836 19.0710678,4.92893219 C19.8521164,5.70998077 19.8521164,6.97631073 19.0710678,7.75735931 C19.011492,7.81693514 18.9490927,7.87196673 18.8843007,7.92245406 C19.2670063,8.56720181 19.5617137,9.27031459 19.7518717,10.0152409 C19.8331697,10.005181 19.9159798,10 20,10 C21.1045695,10 22,10.8954305 22,12 C22,13.1045695 21.1045695,14 20,14 C19.9159798,14 19.8331697,13.994819 19.7518717,13.9847591 C19.5617137,14.7296854 19.2670063,15.4327982 18.8843007,16.0775459 C18.9490927,16.1280333 19.011492,16.1830649 19.0710678,16.2426407 C19.8521164,17.0236893 19.8521164,18.2900192 19.0710678,19.0710678 C18.2900192,19.8521164 17.0236893,19.8521164 16.2426407,19.0710678 C16.1830649,19.011492 16.1280333,18.9490927 16.0775459,18.8843007 C15.4327982,19.2670063 14.7296854,19.5617137 13.9847591,19.7518717 C13.994819,19.8331697 14,19.9159798 14,20 C14,21.1045695 13.1045695,22 12,22 C10.8954305,22 10,21.1045695 10,20 C10,19.9159798 10.005181,19.8331697 10.0152409,19.7518717 C9.27031459,19.5617137 8.56720181,19.2670063 7.92245406,18.8843007 C7.87196673,18.9490927 7.81693514,19.011492 7.75735931,19.0710678 C6.97631073,19.8521164 5.70998077,19.8521164 4.92893219,19.0710678 C4.1478836,18.2900192 4.1478836,17.0236893 4.92893219,16.2426407 C4.98850802,16.1830649 5.05090729,16.1280333 5.11569926,16.0775459 C4.73299372,15.4327982 4.43828625,14.7296854 4.24812832,13.9847591 C4.16683033,13.994819 4.08402021,14 4,14 C2.8954305,14 2,13.1045695 2,12 C2,10.8954305 2.8954305,10 4,10 C4.08402021,10 4.16683033,10.005181 4.24812832,10.0152409 C4.43828625,9.27031459 4.73299372,8.56720181 5.11569926,7.92245406 C5.05090729,7.87196673 4.98850802,7.81693514 4.92893219,7.75735931 C4.1478836,6.97631073 4.1478836,5.70998077 4.92893219,4.92893219 C5.70998077,4.1478836 6.97631073,4.1478836 7.75735931,4.92893219 C7.81693514,4.98850802 7.87196673,5.05090729 7.92245406,5.11569926 Z M12,15 C13.6568542,15 15,13.6568542 15,12 C15,10.3431458 13.6568542,9 12,9 C10.3431458,9 9,10.3431458 9,12 C9,13.6568542 10.3431458,15 12,15 Z" id="Combined-Shape"></path>
        </g>
    </g>
</svg>