<?xml version="1.0" encoding="UTF-8"?>
<svg width="24px" height="18px" viewBox="0 0 24 18" version="1.1" xmlns="http://www.w3.org/2000/svg" xmlns:xlink="http://www.w3.org/1999/xlink">
    <!-- Generator: Sketch 49.3 (51167) - http://www.bohemiancoding.com/sketch -->
    <title>icon/settings2</title>
    <desc>Created with Sketch.</desc>
    <defs></defs>
    <g id="Styleguide" stroke="none" stroke-width="1" fill="none" fill-rule="evenodd">
        <g id="icon/settings2" transform="translate(0.000000, -3.000000)" fill="#C1C7D0">
            <path d="M14.1707057,5 C14.5825421,3.83480763 15.6937812,3 17,3 C18.3062188,3 19.4174579,3.83480763 19.8292943,5 L23,5 C23.5522847,5 24,5.44771525 24,6 C24,6.55228475 23.5522847,7 23,7 L19.8292943,7 C19.4174579,8.16519237 18.3062188,9 17,9 C15.6937812,9 14.5825421,8.16519237 14.1707057,7 L1,7 C0.44771525,7 6.76353751e-17,6.55228475 0,6 C-6.76353751e-17,5.44771525 0.44771525,5 1,5 L14.1707057,5 Z M11.1707057,17 C11.5825421,15.8348076 12.6937812,15 14,15 C15.3062188,15 16.4174579,15.8348076 16.8292943,17 L23,17 C23.5522847,17 24,17.4477153 24,18 C24,18.5522847 23.5522847,19 23,19 L16.8292943,19 C16.4174579,20.1651924 15.3062188,21 14,21 C12.6937812,21 11.5825421,20.1651924 11.1707057,19 L1,19 C0.44771525,19 6.76353751e-17,18.5522847 0,18 C-6.76353751e-17,17.4477153 0.44771525,17 1,17 L11.1707057,17 Z M4.17070571,11 C4.58254212,9.83480763 5.69378117,9 7,9 C8.30621883,9 9.41745788,9.83480763 9.82929429,11 L23,11 C23.5522847,11 24,11.4477153 24,12 C24,12.5522847 23.5522847,13 23,13 L9.82929429,13 C9.41745788,14.1651924 8.30621883,15 7,15 C5.69378117,15 4.58254212,14.1651924 4.17070571,13 L1,13 C0.44771525,13 6.76353751e-17,12.5522847 0,12 C-6.76353751e-17,11.4477153 0.44771525,11 1,11 L4.17070571,11 Z M17,7 C16.4477153,7 16,6.55228475 16,6 C16,5.44771525 16.4477153,5 17,5 C17.5522847,5 18,5.44771525 18,6 C18,6.55228475 17.5522847,7 17,7 Z M7,13 C7.55228475,13 8,12.5522847 8,12 C8,11.4477153 7.55228475,11 7,11 C6.44771525,11 6,11.4477153 6,12 C6,12.5522847 6.44771525,13 7,13 Z M14,19 C14.5522847,19 15,18.5522847 15,18 C15,17.4477153 14.5522847,17 14,17 C13.4477153,17 13,17.4477153 13,18 C13,18.5522847 13.4477153,19 14,19 Z" id="Combined-Shape"></path>
        </g>
    </g>
</svg>