<?xml version="1.0" encoding="UTF-8"?>
<svg width="20px" height="20px" viewBox="0 0 20 20" version="1.1" xmlns="http://www.w3.org/2000/svg" xmlns:xlink="http://www.w3.org/1999/xlink">
    <!-- Generator: Sketch 49.3 (51167) - http://www.bohemiancoding.com/sketch -->
    <title>icon/settings</title>
    <desc>Created with Sketch.</desc>
    <defs></defs>
    <g id="Styleguide" stroke="none" stroke-width="1" fill="none" fill-rule="evenodd">
        <g id="icon/settings" transform="translate(-2.000000, -2.000000)" stroke="#C1C7D0" stroke-width="2">
            <path d="M8.33020865,5.80412934 C8.91048163,5.45969435 9.54328313,5.19445763 10.2137168,5.02331549 C10.2046629,4.9501473 10.2,4.87561819 10.2,4.8 C10.2,3.80588745 11.0058875,3 12,3 C12.9941125,3 13.8,3.80588745 13.8,4.8 C13.8,4.87561819 13.7953371,4.9501473 13.7862832,5.02331549 C14.4567169,5.19445763 15.0895184,5.45969435 15.6697913,5.80412934 C15.7152299,5.74581656 15.7647584,5.68965722 15.8183766,5.63603897 C16.5213203,4.93309524 17.6610173,4.93309524 18.363961,5.63603897 C19.0669048,6.33898269 19.0669048,7.47867966 18.363961,8.18162338 C18.3103428,8.23524163 18.2541834,8.28477005 18.1958707,8.33020865 C18.5403056,8.91048163 18.8055424,9.54328313 18.9766845,10.2137168 C19.0498527,10.2046629 19.1243818,10.2 19.2,10.2 C20.1941125,10.2 21,11.0058875 21,12 C21,12.9941125 20.1941125,13.8 19.2,13.8 C19.1243818,13.8 19.0498527,13.7953371 18.9766845,13.7862832 C18.8055424,14.4567169 18.5403056,15.0895184 18.1958707,15.6697913 C18.2541834,15.7152299 18.3103428,15.7647584 18.363961,15.8183766 C19.0669048,16.5213203 19.0669048,17.6610173 18.363961,18.363961 C17.6610173,19.0669048 16.5213203,19.0669048 15.8183766,18.363961 C15.7647584,18.3103428 15.7152299,18.2541834 15.6697913,18.1958707 C15.0895184,18.5403056 14.4567169,18.8055424 13.7862832,18.9766845 C13.7953371,19.0498527 13.8,19.1243818 13.8,19.2 C13.8,20.1941125 12.9941125,21 12,21 C11.0058875,21 10.2,20.1941125 10.2,19.2 C10.2,19.1243818 10.2046629,19.0498527 10.2137168,18.9766845 C9.54328313,18.8055424 8.91048163,18.5403056 8.33020865,18.1958707 C8.28477005,18.2541834 8.23524163,18.3103428 8.18162338,18.363961 C7.47867966,19.0669048 6.33898269,19.0669048 5.63603897,18.363961 C4.93309524,17.6610173 4.93309524,16.5213203 5.63603897,15.8183766 C5.68965722,15.7647584 5.74581656,15.7152299 5.80412934,15.6697913 C5.45969435,15.0895184 5.19445763,14.4567169 5.02331549,13.7862832 C4.9501473,13.7953371 4.87561819,13.8 4.8,13.8 C3.80588745,13.8 3,12.9941125 3,12 C3,11.0058875 3.80588745,10.2 4.8,10.2 C4.87561819,10.2 4.9501473,10.2046629 5.02331549,10.2137168 C5.19445763,9.54328313 5.45969435,8.91048163 5.80412934,8.33020865 C5.74581656,8.28477005 5.68965722,8.23524163 5.63603897,8.18162338 C4.93309524,7.47867966 4.93309524,6.33898269 5.63603897,5.63603897 C6.33898269,4.93309524 7.47867966,4.93309524 8.18162338,5.63603897 C8.23524163,5.68965722 8.28477005,5.74581656 8.33020865,5.80412934 Z M12,15 C13.6568542,15 15,13.6568542 15,12 C15,10.3431458 13.6568542,9 12,9 C10.3431458,9 9,10.3431458 9,12 C9,13.6568542 10.3431458,15 12,15 Z" id="Combined-Shape"></path>
        </g>
    </g>
</svg>