<?xml version="1.0" encoding="UTF-8"?>
<svg width="24px" height="24px" viewBox="0 0 24 24" version="1.1" xmlns="http://www.w3.org/2000/svg" xmlns:xlink="http://www.w3.org/1999/xlink">
    <!-- Generator: Sketch 49.3 (51167) - http://www.bohemiancoding.com/sketch -->
    <title>icon/start transfer2 active</title>
    <desc>Created with Sketch.</desc>
    <defs></defs>
    <g id="Styleguide" stroke="none" stroke-width="1" fill="none" fill-rule="evenodd">
        <g id="icon/start-transfer2-active">
            <rect id="Rectangle-4" fill="#007FFF" fill-rule="evenodd" x="0" y="0" width="24" height="24" rx="12"></rect>
            <g id="Group" stroke-width="1" fill-rule="evenodd" transform="translate(6.000000, 5.000000)" fill="#FFFFFF">
                <path d="M5.29289322,6.70710678 L0.292893219,1.70710678 C-0.0976310729,1.31658249 -0.0976310729,0.683417511 0.292893219,0.292893219 C0.683417511,-0.0976310729 1.31658249,-0.0976310729 1.70710678,0.292893219 L6.70710678,5.29289322 C7.09763107,5.68341751 7.09763107,6.31658249 6.70710678,6.70710678 C6.31658249,7.09763107 5.68341751,7.09763107 5.29289322,6.70710678 Z" id="Path-2" fill-rule="nonzero" transform="translate(3.500000, 3.500000) scale(1, -1) translate(-3.500000, -3.500000) "></path>
                <path d="M6.70710678,6.70710678 C6.31658249,7.09763107 5.68341751,7.09763107 5.29289322,6.70710678 C4.90236893,6.31658249 4.90236893,5.68341751 5.29289322,5.29289322 L10.2928932,0.292893219 C10.6834175,-0.0976310729 11.3165825,-0.0976310729 11.7071068,0.292893219 C12.0976311,0.683417511 12.0976311,1.31658249 11.7071068,1.70710678 L6.70710678,6.70710678 Z" id="Path-2" fill-rule="nonzero" transform="translate(8.500000, 3.500000) scale(1, -1) translate(-8.500000, -3.500000) "></path>
            </g>
            <path d="M5.9332664,13 C5.4178376,13 5,12.5522847 5,12 C5,11.4477153 5.4178376,11 5.9332664,11 L18.0667336,11 C18.5821624,11 19,11.4477153 19,12 C19,12.5522847 18.5821624,13 18.0667336,13 L5.9332664,13 Z" id="Path-5" fill="#FFFFFF" fill-rule="nonzero" transform="translate(12.000000, 12.000000) rotate(-270.000000) translate(-12.000000, -12.000000) "></path>
        </g>
    </g>
</svg>