<?xml version="1.0" encoding="UTF-8"?>
<svg width="20px" height="20px" viewBox="0 0 20 20" version="1.1" xmlns="http://www.w3.org/2000/svg" xmlns:xlink="http://www.w3.org/1999/xlink">
    <!-- Generator: Sketch 49.3 (51167) - http://www.bohemiancoding.com/sketch -->
    <title>icon/star</title>
    <desc>Created with Sketch.</desc>
    <defs></defs>
    <g id="Styleguide" stroke="none" stroke-width="1" fill="none" fill-rule="evenodd">
        <g id="icon/star" transform="translate(-2.000000, -2.000000)" fill="#C1C7D0" fill-rule="nonzero">
            <path d="M11.5346589,17.4393843 C11.8259829,17.2862262 12.1740171,17.2862262 12.4653411,17.4393843 L15.7688337,19.1761332 C15.9634942,19.2784723 16.1864623,19.3137869 16.4032199,19.2766101 C16.9475564,19.1832491 17.3131442,18.6662931 17.2197832,18.1219567 L16.5888722,14.4434636 C16.5332343,14.1190695 16.6407828,13.7880693 16.8764689,13.5583322 L19.5490505,10.9532089 C19.7065342,10.7997003 19.8090214,10.5985579 19.8406459,10.3809209 C19.9200635,9.83437601 19.541382,9.32693316 18.9948372,9.24751554 L15.3014201,8.71083063 C14.97571,8.66350217 14.6941444,8.4589328 14.5484824,8.16378933 L12.8967361,4.81698575 C12.7994058,4.61977315 12.6397783,4.46014562 12.4425657,4.36281539 C11.9473121,4.11839309 11.3476862,4.32173209 11.1032639,4.81698575 L9.45151761,8.16378933 C9.3058556,8.4589328 9.02429001,8.66350217 8.69857985,8.71083063 L5.00516283,9.24751554 C4.78752579,9.27914005 4.58638338,9.38162723 4.43287478,9.53911086 C4.04737357,9.93459444 4.05546587,10.5677077 4.45094945,10.9532089 L7.12353112,13.5583322 C7.35921721,13.7880693 7.46676569,14.1190695 7.41112775,14.4434636 L6.7802168,18.1219567 C6.74303996,18.3387143 6.77835463,18.5616824 6.8806937,18.7563429 C7.13769451,19.2451875 7.74232167,19.433134 8.23116625,19.1761332 L11.5346589,17.4393843 Z M9.16184851,20.946396 C7.69531475,21.7173985 5.88143328,21.1535589 5.11043086,19.6870251 C4.80341365,19.1030437 4.69746963,18.4341395 4.80900016,17.7838666 L5.35103886,14.6235385 L3.05492607,12.3853816 C1.86847534,11.228878 1.84419842,9.32953821 3.00070205,8.14308748 C3.46122787,7.67063658 4.0646551,7.36317504 4.71756619,7.26830151 L7.89071602,6.80721585 L9.30979177,3.93185433 C10.0430586,2.44609335 11.8419362,1.83607635 13.3276971,2.56934323 C13.9193349,2.86133395 14.3982175,3.34021651 14.6902082,3.93185433 L16.109284,6.80721585 L19.2824338,7.26830151 C20.9220684,7.50655436 22.0581128,9.02888291 21.8198599,10.6685175 C21.7249864,11.3214286 21.4175248,11.9248558 20.9450739,12.3853816 L18.6489611,14.6235385 L19.1909998,17.7838666 C19.4710829,19.4168759 18.3743194,20.9677437 16.7413101,21.2478267 C16.0910372,21.3593573 15.4221329,21.2534132 14.8381515,20.946396 L12,19.4542915 L9.16184851,20.946396 Z" id="Star"></path>
        </g>
    </g>
</svg>