<?xml version="1.0" encoding="UTF-8"?>
<svg width="18px" height="20px" viewBox="0 0 18 20" version="1.1" xmlns="http://www.w3.org/2000/svg" xmlns:xlink="http://www.w3.org/1999/xlink">
    <!-- Generator: Sketch 49.3 (51167) - http://www.bohemiancoding.com/sketch -->
    <title>icon/stopwatch</title>
    <desc>Created with Sketch.</desc>
    <defs></defs>
    <g id="Styleguide" stroke="none" stroke-width="1" fill="none" fill-rule="evenodd">
        <g id="icon/stopwatch" transform="translate(-3.000000, -2.000000)" fill="#C1C7D0" fill-rule="nonzero">
            <path d="M14.0010617,4.22325741 C15.3496862,4.5294492 16.583252,5.1385055 17.6264656,5.97513281 L18.3087052,5.29289322 C18.6992295,4.90236893 19.3323945,4.90236893 19.7229188,5.29289322 C20.1134431,5.68341751 20.1134431,6.31658249 19.7229188,6.70710678 L19.0389216,7.39110395 C20.266326,8.92941479 21,10.879028 21,13 C21,17.9705627 16.9705627,22 12,22 C7.02943725,22 3,17.9705627 3,13 C3,8.70772338 6.00475233,5.11724428 10.0255648,4.21725483 C10.0088389,4.14473566 10,4.06920019 10,3.99160029 L10,3 C10,2.44771525 10.4477153,2 11,2 L13.0208366,2 C13.5731213,2 14.0208366,2.44771525 14.0208366,3 L14.0208366,4.02438766 C14.0208366,4.09248159 14.0140306,4.15898589 14.0010617,4.22325741 Z M12.0208366,4.00002361 C12.0138929,4.00000787 12.0069474,4 12,4 C11.3217139,4 10.6609529,4.07503418 10.0255648,4.21725483 Z M12,20 C15.8659932,20 19,16.8659932 19,13 C19,9.13400675 15.8659932,6 12,6 C8.13400675,6 5,9.13400675 5,13 C5,16.8659932 8.13400675,20 12,20 Z M12.5180432,11.0677432 L14.2928932,9.29289322 C14.6834175,8.90236893 15.3165825,8.90236893 15.7071068,9.29289322 C16.0976311,9.68341751 16.0976311,10.3165825 15.7071068,10.7071068 L13.9322568,12.4819568 C13.9764427,12.6471834 14,12.8208407 14,13 C14,14.1045695 13.1045695,15 12,15 C10.8954305,15 10,14.1045695 10,13 C10,11.8954305 10.8954305,11 12,11 C12.1791593,11 12.3528166,11.0235573 12.5180432,11.0677432 Z" id="Combined-Shape"></path>
        </g>
    </g>
</svg>