<?xml version="1.0" encoding="UTF-8"?>
<svg width="18px" height="18px" viewBox="0 0 18 18" version="1.1" xmlns="http://www.w3.org/2000/svg" xmlns:xlink="http://www.w3.org/1999/xlink">
    <!-- Generator: Sketch 49.3 (51167) - http://www.bohemiancoding.com/sketch -->
    <title>icon/top up</title>
    <desc>Created with Sketch.</desc>
    <defs></defs>
    <g id="Styleguide" stroke="none" stroke-width="1" fill="none" fill-rule="evenodd">
        <g id="icon/top-up" transform="translate(-3.000000, -3.000000)" fill="#C1C7D0">
            <path d="M11,9.91421356 L8.70710678,12.2071068 C8.31658249,12.5976311 7.68341751,12.5976311 7.29289322,12.2071068 C6.90236893,11.8165825 6.90236893,11.1834175 7.29289322,10.7928932 L11.2928932,6.79289322 C11.6834175,6.40236893 12.3165825,6.40236893 12.7071068,6.79289322 L16.7071068,10.7928932 C17.0976311,11.1834175 17.0976311,11.8165825 16.7071068,12.2071068 C16.3165825,12.5976311 15.6834175,12.5976311 15.2928932,12.2071068 L13,9.91421356 L13,20.0667336 C13,20.5821624 12.5522847,21 12,21 C11.4477153,21 11,20.5821624 11,20.0667336 L11,9.91421356 Z" id="Combined-Shape" fill-rule="nonzero"></path>
            <rect id="Rectangle-27" fill-rule="evenodd" x="3" y="3" width="18" height="2" rx="1"></rect>
        </g>
    </g>
</svg>