<?xml version="1.0" encoding="UTF-8"?>
<svg width="18px" height="20px" viewBox="0 0 18 20" version="1.1" xmlns="http://www.w3.org/2000/svg" xmlns:xlink="http://www.w3.org/1999/xlink">
    <!-- Generator: Sketch 49.3 (51167) - http://www.bohemiancoding.com/sketch -->
    <title>icon/upload</title>
    <desc>Created with Sketch.</desc>
    <defs></defs>
    <g id="Styleguide" stroke="none" stroke-width="1" fill="none" fill-rule="evenodd">
        <g id="icon/upload" transform="translate(-3.000000, -2.000000)" fill="#C1C7D0" fill-rule="nonzero">
            <path d="M11,5.91421356 L8.70710678,8.20710678 C8.31658249,8.59763107 7.68341751,8.59763107 7.29289322,8.20710678 C6.90236893,7.81658249 6.90236893,7.18341751 7.29289322,6.79289322 L11.2928932,2.79289322 C11.6834175,2.40236893 12.3165825,2.40236893 12.7071068,2.79289322 L16.7071068,6.79289322 C17.0976311,7.18341751 17.0976311,7.81658249 16.7071068,8.20710678 C16.3165825,8.59763107 15.6834175,8.59763107 15.2928932,8.20710678 L13,5.91421356 L13,16.0667336 C13,16.5821624 12.5522847,17 12,17 C11.4477153,17 11,16.5821624 11,16.0667336 L11,5.91421356 Z M3,19 C3,18.4477153 3.44771525,18 4,18 C4.55228475,18 5,18.4477153 5,19 L5,20 L19,20 L19,19 C19,18.4477153 19.4477153,18 20,18 C20.5522847,18 21,18.4477153 21,19 L21,20 C21,21.1045695 20.1045695,22 19,22 L5,22 C3.8954305,22 3,21.1045695 3,20 L3,19 Z" id="Combined-Shape"></path>
        </g>
    </g>
</svg>