<?xml version="1.0" encoding="UTF-8"?>
<svg width="16px" height="18px" viewBox="0 0 16 18" version="1.1" xmlns="http://www.w3.org/2000/svg" xmlns:xlink="http://www.w3.org/1999/xlink">
    <!-- Generator: Sketch 49.3 (51167) - http://www.bohemiancoding.com/sketch -->
    <title>icon/user</title>
    <desc>Created with Sketch.</desc>
    <defs></defs>
    <g id="Styleguide" stroke="none" stroke-width="1" fill="none" fill-rule="evenodd">
        <g id="icon/user" transform="translate(-4.000000, -3.000000)" fill="#C1C7D0" fill-rule="nonzero">
            <path d="M12,10 C13.3807119,10 14.5,8.88071187 14.5,7.5 C14.5,6.11928813 13.3807119,5 12,5 C10.6192881,5 9.5,6.11928813 9.5,7.5 C9.5,8.88071187 10.6192881,10 12,10 Z M12,12 C9.51471863,12 7.5,9.98528137 7.5,7.5 C7.5,5.01471863 9.51471863,3 12,3 C14.4852814,3 16.5,5.01471863 16.5,7.5 C16.5,9.98528137 14.4852814,12 12,12 Z" id="Combined-Shape"></path>
            <path d="M11.162922,19.0000416 C11.3440669,19.0000104 11.3440669,19.0000104 11.5293873,19 C11.6511208,19.0000029 11.6511208,19.0000029 11.771339,19.0000115 C15.7674543,19.0002988 16.9637034,18.9481903 17.7930038,18.7002804 C18.1739781,18.5863925 18.1201003,18.6711564 18.117616,18.00796 C18.1046316,14.54167 15.5048462,12 11.999974,12 C8.48965185,12 5.88234681,14.5451475 5.88234681,18 C5.88234681,18.3685241 5.89809947,18.6179757 5.91774171,18.7651678 C6.5003937,18.9541138 7.61446975,19.0006565 11.162922,19.0000416 Z M11.5293873,21 C4.8979543,21 4,21.0594549 4,18 C4,13.3055796 7.58171034,10 11.999974,10 C16.4182376,10 19.9823631,13.3055967 19.9999479,18 C20.0113287,21.0381961 18.1608202,21 11.5293873,21 Z" id="Oval-14"></path>
        </g>
    </g>
</svg>