<?xml version="1.0" encoding="UTF-8"?>
<svg width="20px" height="16px" viewBox="0 0 20 16" version="1.1" xmlns="http://www.w3.org/2000/svg" xmlns:xlink="http://www.w3.org/1999/xlink">
    <!-- Generator: Sketch 50 (54983) - http://www.bohemiancoding.com/sketch -->
    <title>icon/wallet-active@1x</title>
    <desc>Created with Sketch.</desc>
    <defs></defs>
    <g id="STYLEGUIDE" stroke="none" stroke-width="1" fill="none" fill-rule="evenodd">
        <g id="PayCap-Styleguide" transform="translate(-1026.000000, -2828.000000)" fill="#5243AA">
            <g id="icon/wallet-active" transform="translate(1024.000000, 2824.000000)">
                <path d="M2.0020499,5.99999998 L2.00000002,18 C1.99983829,19.1045695 2.89513767,20.0001311 3.99970716,20.0002928 C3.99980477,20.0002928 3.99990239,20.0002928 4,20.0002928 L18,20 C19.1045695,20 20,19.1045695 20,18 L20,15.9958506 L13,15.9958506 C11.8954305,15.9958506 11,15.1004201 11,13.9958506 L11,10 C11,8.8954305 11.8954305,8 13,8 L19.9955733,8 L19.9955733,6 C19.9955733,4.8954305 19.1001428,4 17.9955733,4 L4.00234274,4.00029286 C2.8978876,4.00029286 2.00250447,4.89554489 2.00234276,6.00000002 Z" id="Path-12"></path>
                <path d="M13,10 L22,10 L22,14 L13,14 L13,10 Z M15,13 C15.5522847,13 16,12.5522847 16,12 C16,11.4477153 15.5522847,11 15,11 C14.4477153,11 14,11.4477153 14,12 C14,12.5522847 14.4477153,13 15,13 Z" id="Combined-Shape"></path>
            </g>
        </g>
    </g>
</svg>