<?xml version="1.0" encoding="UTF-8"?>
<svg width="20px" height="16px" viewBox="0 0 20 16" version="1.1" xmlns="http://www.w3.org/2000/svg" xmlns:xlink="http://www.w3.org/1999/xlink">
    <title>icon/wallet</title>
    <desc>Created with Sketch.</desc>
    <defs></defs>
    <g id="Styleguide" stroke="none" stroke-width="1" fill="none" fill-rule="evenodd">
        <g id="icon/wallet" transform="translate(-2.000000, -4.000000)" fill="#C1C7D0" fill-rule="nonzero">
            <path d="M4,6 L4,18 L18,18 L18,6 L4,6 Z M20,9 L18,9 L18,15 L20,15 L20,18 C20,19.1045695 19.1045695,20 18,20 L4,20 C2.8954305,20 2,19.1045695 2,18 L2,6 C2,4.8954305 2.8954305,4 4,4 L18,4 C19.1045695,4 20,4.8954305 20,6 L20,9 Z M15,13 C15.5522847,13 16,12.5522847 16,12 C16,11.4477153 15.5522847,11 15,11 C14.4477153,11 14,11.4477153 14,12 C14,12.5522847 14.4477153,13 15,13 Z M13,8 L20,8 C21.1045695,8 22,8.8954305 22,10 L22,14 C22,15.1045695 21.1045695,16 20,16 L13,16 C11.8954305,16 11,15.1045695 11,14 L11,10 C11,8.8954305 11.8954305,8 13,8 Z M13,10 L13,14 L20,14 L20,10 L13,10 Z" id="Combined-Shape"></path>
        </g>
    </g>
</svg>