<?xml version="1.0" encoding="UTF-8"?>
<svg width="24px" height="16px" viewBox="0 0 24 16" version="1.1" xmlns="http://www.w3.org/2000/svg" xmlns:xlink="http://www.w3.org/1999/xlink">
    <!-- Generator: Sketch 49.3 (51167) - http://www.bohemiancoding.com/sketch -->
    <title>flag/BTC@1x</title>
    <desc>Created with Sketch.</desc>
    <defs>
        <rect id="path-1" x="0" y="0" width="24" height="16" rx="2"></rect>
    </defs>
    <g id="Styleguide" stroke="none" stroke-width="1" fill="none" fill-rule="evenodd">
        <g id="PayCap-Styleguide" transform="translate(-326.000000, -6446.000000)">
            <g id="flag/BTC" transform="translate(326.000000, 6446.000000)">
                <mask id="mask-2" fill="white">
                    <use xlink:href="#path-1"></use>
                </mask>
                <g id="mask"></g>
                <rect id="Rectangle" fill="#F0A74D" fill-rule="evenodd" mask="url(#mask-2)" x="0" y="0" width="24" height="16"></rect>
                <path d="M15.4955601,6.18527423 C15.5653153,6.98102056 15.2386088,7.44842369 14.7196667,7.7044594 C15.5690465,7.9378971 16.0984278,8.47211947 15.9846802,9.63336245 C15.8437661,11.0755128 14.7917406,11.4343111 13.2920726,11.4811195 L13.2806241,13 L12.3889905,12.9753946 L12.4003965,11.4768345 C12.1693436,11.4706517 11.9326904,11.4621 11.6881737,11.4501328 L11.6771308,12.9556408 L10.7864554,12.930817 L10.7972679,11.4092171 C10.5886992,11.4020756 10.3762649,11.3924301 10.1603363,11.386185 L9,11.3540838 L9.18520238,10.2653476 C9.18520238,10.2653476 9.84468392,10.2941762 9.83335155,10.2834792 C10.0856826,10.2900197 10.1538638,10.1057435 10.1705721,9.98944508 L10.1884536,7.58844768 C10.2211472,7.58906768 10.2529405,7.59015331 10.282644,7.5909341 C10.2458701,7.58473431 10.2133665,7.58276902 10.1884456,7.58193964 L10.2009702,5.86803957 C10.1681462,5.68126797 10.0521854,5.46266985 9.69102689,5.4525526 C9.70206312,5.44040245 9.04353023,5.43505347 9.04353023,5.43505347 L9.05048882,4.45699197 L10.2802682,4.49149189 L10.2803505,4.4961602 C10.4652044,4.50115584 10.6548081,4.50272527 10.8478811,4.5040247 L10.8592709,3 L11.7504254,3.02471461 L11.7394502,4.49922035 C11.9775328,4.50093643 12.2171682,4.50281933 12.4515665,4.50928111 L12.4622851,3.04446841 L13.3539188,3.06907382 L13.3428841,4.57353835 C14.4930713,4.70898561 15.4020067,5.09784355 15.4955601,6.18527423 Z M14.2241877,9.40423637 C14.2329831,8.21822263 12.3367734,8.34422173 11.7323121,8.32732884 L11.71726,10.3433406 C12.3215479,10.3594919 14.2163201,10.5413451 14.2241877,9.40423637 Z M13.8304156,6.54842226 C13.8382387,5.46939144 12.2559072,5.58998512 11.7525667,5.57608213 L11.7390695,7.40451662 C12.24241,7.41841961 13.8225288,7.58294031 13.8304156,6.54842226 Z" id="symbol" fill="#FFFFFF" fill-rule="nonzero" mask="url(#mask-2)"></path>
            </g>
        </g>
    </g>
</svg>