<?xml version="1.0" encoding="UTF-8"?>
<svg width="24px" height="16px" viewBox="0 0 24 16" version="1.1" xmlns="http://www.w3.org/2000/svg" xmlns:xlink="http://www.w3.org/1999/xlink">
    <!-- Generator: Sketch 49.3 (51167) - http://www.bohemiancoding.com/sketch -->
    <title>flag/empty@1x</title>
    <desc>Created with Sketch.</desc>
    <defs></defs>
    <g id="Styleguide" stroke="none" stroke-width="1" fill="none" fill-rule="evenodd">
        <g id="PayCap-Styleguide" transform="translate(-579.000000, -6446.000000)" fill="#C1C7D0" fill-rule="nonzero">
            <g id="flag/empty" transform="translate(579.000000, 6446.000000)">
                <path d="M2.5,1 C2.22385763,1 2,0.776142375 2,0.5 C2,0.223857625 2.22385763,0 2.5,0 L4.5,0 C4.77614237,0 5,0.223857625 5,0.5 C5,0.776142375 4.77614237,1 4.5,1 L2.5,1 Z M7.5,1 C7.22385763,1 7,0.776142375 7,0.5 C7,0.223857625 7.22385763,0 7.5,0 L9.5,0 C9.77614237,0 10,0.223857625 10,0.5 C10,0.776142375 9.77614237,1 9.5,1 L7.5,1 Z M12.5,1 C12.2238576,1 12,0.776142375 12,0.5 C12,0.223857625 12.2238576,0 12.5,0 L14.5,0 C14.7761424,0 15,0.223857625 15,0.5 C15,0.776142375 14.7761424,1 14.5,1 L12.5,1 Z M17.5,1 C17.2238576,1 17,0.776142375 17,0.5 C17,0.223857625 17.2238576,0 17.5,0 L19.5,0 C19.7761424,0 20,0.223857625 20,0.5 C20,0.776142375 19.7761424,1 19.5,1 L17.5,1 Z M22.2258789,1.1869116 C21.9843665,1.05302222 21.8971208,0.748698937 22.0310102,0.507186527 C22.1648996,0.265674116 22.4692229,0.178428414 22.7107353,0.312317797 C23.4857459,0.741967325 23.9833163,1.55292295 23.9995864,2.45415693 C24.0045709,2.73025431 23.7847904,2.95811615 23.508693,2.96310058 C23.2325956,2.96808501 23.0047338,2.74830454 22.9997494,2.47220716 C22.9899867,1.93143396 22.6915846,1.44508898 22.2258789,1.1869116 Z M23,5.43853254 C23,5.16239017 23.2238576,4.93853254 23.5,4.93853254 C23.7761424,4.93853254 24,5.16239017 24,5.43853254 L24,7.43853254 C24,7.71467492 23.7761424,7.93853254 23.5,7.93853254 C23.2238576,7.93853254 23,7.71467492 23,7.43853254 L23,5.43853254 Z M23,10.4385325 C23,10.1623902 23.2238576,9.93853254 23.5,9.93853254 C23.7761424,9.93853254 24,10.1623902 24,10.4385325 L24,12.4385325 C24,12.7146749 23.7761424,12.9385325 23.5,12.9385325 C23.2238576,12.9385325 23,12.7146749 23,12.4385325 L23,10.4385325 Z M22.2951753,14.7722011 C22.5291541,14.6255433 22.8377211,14.6963309 22.9843789,14.9303097 C23.1310368,15.1642885 23.0602491,15.4728555 22.8262703,15.6195134 C22.431825,15.8667516 21.9751196,16 21.5,16 L20.6229349,16 C20.3467925,16 20.1229349,15.7761424 20.1229349,15.5 C20.1229349,15.2238576 20.3467925,15 20.6229349,15 L21.5,15 C21.7858785,15 22.0587662,14.9203823 22.2951753,14.7722011 Z M17.6229349,15 C17.8990773,15 18.1229349,15.2238576 18.1229349,15.5 C18.1229349,15.7761424 17.8990773,16 17.6229349,16 L15.6229349,16 C15.3467925,16 15.1229349,15.7761424 15.1229349,15.5 C15.1229349,15.2238576 15.3467925,15 15.6229349,15 L17.6229349,15 Z M12.6229349,15 C12.8990773,15 13.1229349,15.2238576 13.1229349,15.5 C13.1229349,15.7761424 12.8990773,16 12.6229349,16 L10.6229349,16 C10.3467925,16 10.1229349,15.7761424 10.1229349,15.5 C10.1229349,15.2238576 10.3467925,15 10.6229349,15 L12.6229349,15 Z M7.62293492,15 C7.89907729,15 8.12293492,15.2238576 8.12293492,15.5 C8.12293492,15.7761424 7.89907729,16 7.62293492,16 L5.62293492,16 C5.34679254,16 5.12293492,15.7761424 5.12293492,15.5 C5.12293492,15.2238576 5.34679254,15 5.62293492,15 L7.62293492,15 Z M2.62293492,15 C2.89907729,15 3.12293492,15.2238576 3.12293492,15.5 C3.12293492,15.7761424 2.89907729,16 2.62293492,16 L2.5,16 C1.66001692,16 0.890022243,15.5820678 0.428244276,14.8995827 C0.27349686,14.6708736 0.333454645,14.3600207 0.562163736,14.2052732 C0.790872828,14.0505258 1.10172575,14.1104836 1.25647316,14.3391927 C1.53416199,14.7496032 1.99549101,15 2.5,15 L2.62293492,15 Z M1,11.6844024 C1,11.9605448 0.776142375,12.1844024 0.5,12.1844024 C0.223857625,12.1844024 0,11.9605448 0,11.6844024 L0,9.68440238 C0,9.40826 0.223857625,9.18440238 0.5,9.18440238 C0.776142375,9.18440238 1,9.40826 1,9.68440238 L1,11.6844024 Z M1,6.68440238 C1,6.96054475 0.776142375,7.18440238 0.5,7.18440238 C0.223857625,7.18440238 0,6.96054475 0,6.68440238 L0,4.68440238 C0,4.40826 0.223857625,4.18440238 0.5,4.18440238 C0.776142375,4.18440238 1,4.40826 1,4.68440238 L1,6.68440238 Z M1.12410406,1.90130821 C1.01375273,2.15444295 0.719089054,2.27019178 0.465954315,2.15984045 C0.212819576,2.04948913 0.0970707496,1.75482545 0.207422075,1.50169071 C0.562249036,0.687753684 1.32719791,0.115963889 2.2181002,0.0157622451 C2.49251238,-0.0151014665 2.73998738,0.182333574 2.7708511,0.45674575 C2.80171481,0.731157927 2.60427977,0.97863293 2.32986759,1.00949664 C1.79648244,1.06948759 1.33700098,1.41294427 1.12410406,1.90130821 Z" id="Rectangle-29"></path>
            </g>
        </g>
    </g>
</svg>