<?xml version="1.0" encoding="UTF-8"?>
<svg width="24px" height="16px" viewBox="0 0 24 16" version="1.1" xmlns="http://www.w3.org/2000/svg" xmlns:xlink="http://www.w3.org/1999/xlink">
    <!-- Generator: Sketch 49.3 (51167) - http://www.bohemiancoding.com/sketch -->
    <title>flag/EUR@1x</title>
    <desc>Created with Sketch.</desc>
    <defs></defs>
    <g id="Styleguide" stroke="none" stroke-width="1" fill="none" fill-rule="evenodd">
        <g id="PayCap-Styleguide" transform="translate(-452.000000, -6446.000000)">
            <g id="flag/EUR" transform="translate(452.000000, 6446.000000)">
                <g id="flag_yellow_eps">
                    <rect id="Rectangle" fill="#174489" x="0" y="0" width="24" height="16" rx="2"></rect>
                    <path d="M11.3304324,3.47884577 L11.5151351,2.91661692 L11.0225676,2.56899502 L11.6297838,2.56963184 L11.8157027,2 L12.0016216,2.56899502 L12.6090811,2.56899502 L12.1162703,2.91661692 L12.3008919,3.47884577 L11.8157027,3.13122388 L11.3304324,3.47884577 Z M8.81943243,4.14113433 L9.00381081,3.57898507 L8.51132432,3.23136318 L9.11845946,3.2319204 L9.30437838,2.66165174 L9.4902973,3.23136318 L10.0977568,3.23136318 L9.60527027,3.57898507 L9.78956757,4.14113433 L9.3047027,3.79351244 L8.81943243,4.14113433 Z M7.46740541,4.46949254 L7.65332432,5.03920398 L8.26045946,5.03920398 L7.76797297,5.38682587 L7.95259459,5.94897512 L7.46740541,5.60135323 L6.98213514,5.94897512 L7.16683784,5.38682587 L6.67435135,5.03920398 L7.28148649,5.03976119 L7.46740541,4.46949254 Z M6.79337838,8.06344279 L6.30818919,8.41106468 L6.49281081,7.84883582 L6,7.50121393 L6.60745946,7.50248756 L6.79337838,6.93158209 L6.9792973,7.50121393 L7.58651351,7.50121393 L7.09394595,7.84883582 L7.27832432,8.41106468 L6.79337838,8.06344279 Z M7.65332432,9.97078607 L8.26045946,9.97078607 L7.76797297,10.318408 L7.95259459,10.8805572 L7.46740541,10.5322985 L6.98213514,10.8805572 L7.16683784,10.318408 L6.67435135,9.97078607 L7.28148649,9.97134328 L7.46740541,9.40107463 L7.65332432,9.97078607 Z M9.49410811,11.77799 L10.1015676,11.77799 L9.60908108,12.1256119 L9.79337838,12.6877612 L9.30851351,12.3401393 L8.82324324,12.6877612 L9.00762162,12.1256119 L8.51513514,11.77799 L9.12259459,11.7785473 L9.30818919,11.2089154 L9.49410811,11.77799 Z M12.0019459,12.432796 L12.6094054,12.432796 L12.1165946,12.7804179 L12.3012162,13.3426468 L11.8162703,12.9950249 L11.3310811,13.3426468 L11.5154595,12.7804179 L11.0228919,12.432796 L11.6304324,12.4334328 L11.816027,11.8631642 L12.0019459,12.432796 Z M14.5097027,11.77799 L15.1171622,11.77799 L14.6243514,12.1256119 L14.8092973,12.6877612 L14.3241081,12.3401393 L13.8389189,12.6877612 L14.0232162,12.1256119 L13.5310541,11.77799 L14.1378649,11.7785473 L14.3241081,11.2089154 L14.5097027,11.77799 Z M16.3511351,9.97078607 L16.9579459,9.97078607 L16.4651351,10.318408 L16.6501622,10.8805572 L16.1648919,10.5322985 L15.6797027,10.8805572 L15.8646486,10.318408 L15.3718378,9.97078607 L15.9786486,9.97134328 L16.1648919,9.40107463 L16.3511351,9.97078607 Z M17.625,7.49436816 L17.1321892,7.84199005 L17.3164865,8.40421891 L16.8312973,8.0559602 L16.3466757,8.40421891 L16.5310541,7.84199005 L16.0382432,7.49436816 L16.6457027,7.49500498 L16.8312973,6.92473632 L17.0175405,7.49436816 L17.625,7.49436816 Z M15.6797027,5.94149254 L15.8646486,5.37934328 L15.3718378,5.03235821 L15.9786486,5.03291542 L16.1648919,4.46264677 L16.3511351,5.03235821 L16.9579459,5.03235821 L16.4651351,5.37934328 L16.6501622,5.94149254 L16.1648919,5.59387065 L15.6797027,5.94149254 Z M14.3310811,2.66228856 L14.5166757,3.23136318 L15.1247838,3.23136318 L14.631973,3.57962189 L14.8163514,4.14177114 L14.3317297,3.79351244 L13.8458919,4.14177114 L14.0301892,3.57962189 L13.538027,3.23136318 L14.1454865,3.23255721 L14.3310811,2.66228856 Z" id="Combined-Shape" fill="#FFF101"></path>
                </g>
            </g>
        </g>
    </g>
</svg>